<mxfile host="app.diagrams.net" agent="Mozilla/5.0 (Macintosh; Intel Mac OS X 10_15_7) AppleWebKit/537.36 (KHTML, like Gecko) Chrome/138.0.0.0 Safari/537.36" version="28.0.9" pages="3">
  <diagram name="Page-1" id="dTDBuPtz-Yc2Rat5LWtF">
    <mxGraphModel dx="1018" dy="738" grid="1" gridSize="10" guides="1" tooltips="1" connect="1" arrows="1" fold="1" page="1" pageScale="1" pageWidth="827" pageHeight="1169" math="0" shadow="0">
      <root>
        <mxCell id="0" />
        <mxCell id="1" parent="0" />
        <mxCell id="gKjAroneWEzs5hwwzvp1-1" value="&amp;nbsp; Web UI" style="rounded=0;whiteSpace=wrap;html=1;align=left;verticalAlign=top;" vertex="1" parent="1">
          <mxGeometry x="70" y="110" width="190" height="310" as="geometry" />
        </mxCell>
        <mxCell id="gKjAroneWEzs5hwwzvp1-2" value="&amp;nbsp; App UI" style="rounded=0;whiteSpace=wrap;html=1;align=left;verticalAlign=top;" vertex="1" parent="1">
          <mxGeometry x="290" y="110" width="190" height="310" as="geometry" />
        </mxCell>
        <mxCell id="gKjAroneWEzs5hwwzvp1-3" value="" style="rounded=0;whiteSpace=wrap;html=1;" vertex="1" parent="1">
          <mxGeometry x="70" y="460" width="410" height="100" as="geometry" />
        </mxCell>
        <mxCell id="irbZx9F8Nz5vICIQaf1G-1" value="Register" style="rounded=0;whiteSpace=wrap;html=1;" vertex="1" parent="1">
          <mxGeometry x="105" y="160" width="120" height="60" as="geometry" />
        </mxCell>
        <mxCell id="irbZx9F8Nz5vICIQaf1G-2" value="Account Binding" style="rounded=0;whiteSpace=wrap;html=1;" vertex="1" parent="1">
          <mxGeometry x="330" y="160" width="120" height="60" as="geometry" />
        </mxCell>
      </root>
    </mxGraphModel>
  </diagram>
  <diagram id="OTSt2ayM32fHOPjgBYG5" name="Registration">
    <mxGraphModel dx="1018" dy="738" grid="1" gridSize="10" guides="1" tooltips="1" connect="1" arrows="1" fold="1" page="1" pageScale="1" pageWidth="827" pageHeight="1169" math="0" shadow="0">
      <root>
        <mxCell id="0" />
        <mxCell id="1" parent="0" />
      </root>
    </mxGraphModel>
  </diagram>
  <diagram id="ukkSfQ-8KjxrWeYiLMpF" name="Page-3">
    <mxGraphModel grid="1" page="1" gridSize="10" guides="1" tooltips="1" connect="1" arrows="1" fold="1" pageScale="1" pageWidth="827" pageHeight="1169" math="0" shadow="0">
      <root>
        <mxCell id="0" />
        <mxCell id="1" parent="0" />
      </root>
    </mxGraphModel>
  </diagram>
</mxfile>
